<svg xmlns="http://www.w3.org/2000/svg" viewBox="0 0 120 130" fill="none">
  <!-- Pin Laranja Exterior Oficial Pinta Aqui -->
  <path
    d="M 60 6 C 30 6 8 28 8 58 C 8 86 38 114 60 126 C 82 114 112 86 112 58 C 112 28 90 6 60 6 Z"
    fill="#FF7A18"
  />
  <!-- Círculo Branco Central -->
  <circle cx="60" cy="52" r="32" fill="#FFFFFF" />
  
  <!-- Rolo de Pintura Laranja -->
  <rect x="42" y="38" width="36" height="17" rx="3.5" fill="#FF7A18" />
  
  <!-- Cabo de Arame Azul Marinho -->
  <path
    d="M 57 55 L 57 68 A 5 5 0 0 1 52 73 L 49 73 A 5 5 0 0 0 44 78 L 44 87"
    fill="none"
    stroke="#004B8D"
    stroke-width="4.5"
    stroke-linecap="round"
    stroke-linejoin="round"
  />
  <!-- Empunhadura do Cabo -->
  <line
    x1="44"
    y1="82"
    x2="44"
    y2="88"
    stroke="#004B8D"
    stroke-width="5.5"
    stroke-linecap="round"
  />
</svg>
